/* XPM */
static char *_bac67087b5049718d140e354ba48f05QWfdJ8LSG65TwUUA[] = {
/* columns rows colors chars-per-pixel */
"64 64 35 1 ",
"  c gray20",
". c gray22",
"X c #393939",
"o c #3F3F3F",
"O c #434343",
"+ c gray28",
"@ c #4B4B4B",
"# c gray30",
"$ c gray32",
"% c gray33",
"& c #5A5A5A",
"* c gray37",
"= c #606060",
"- c #646464",
"; c #686868",
": c #6D6D6D",
"> c gray44",
", c #747474",
"< c #797979",
"1 c gray50",
"2 c #818181",
"3 c #848484",
"4 c #888888",
"5 c #8E8E8E",
"6 c #909090",
"7 c gray59",
"8 c gray60",
"9 c #9F9F9F",
"0 c #A2A2A2",
"q c #A7A7A7",
"w c gray66",
"e c #ACACAC",
"r c gray70",
"t c gray71",
"y c gray72",
/* pixels */
"2829w084:.4ww416-7q94;@&3#%-:44&2y>46>4<785<>:39eww9=-461=O%8785",
"83128842=.,36q61=-352;&988q62-15563qq845=*---26wrqq8,%-:&#$40ew0",
"q6<:441,*:34157,.>3,>*:70q741<5q8<57764,;>;-26ww0063;$404>>6wrww",
"97,$=:;*%5081<,;#:q5;*369741378q92<7742>-4975790861:*:5erq178qqq",
"63-@<9;:=6805<;#=0rq5<63573<38082::695<:2we02<773,:;170req72,278",
"3:$707761+152,;*68te9622686<,462-*1983<17wwq6:12>=-<60eweq05-->3",
",&40we872@&632>:70t097634452:><-#o>852>4890071;;*$=60wq00974:%<:",
";19eq985>%20w86148q87653311,==;;#.2973,267784<-*&$35wwq9975<;126",
";70w984,=<9q9763<584242,,21>%;q5=&5094:>24552;-*<4390097641;>8q8",
"<43794,=;4796643244>=>,;22>>,6734=3841;-:1354,<6699845454,;28w99",
">$,65>&=2777533221,&O&<,2>;280894%;2;-,,133424570093,;,,>-279997",
"=.;2,&$-37641<12,<,-O-6901148997,O&83265665548642682-6;-=-609773",
"%#384->2<132>>,<<3<3-,60q71:<33<&@2wrq98857q33<=;76<5753<122453>",
"#;6eeq6:,1<,:==>33332489972=-=-=@,9rq99005795,&#<w73ee741>;=*:;=",
"$20ew984<4>1=$&354446097774:-78r-7ee099984354,-:7eqerq5,*<&>2#o$",
"30809741<2553>3297883887763>=6wr660088786<:1>;:17rr088<@46551+$>",
"e84:54>=;3896467ew08>246542:,9ee9;476544<;;53:377qq21<#<8875,*3q",
"t8-:<>-$=4884700qq07<*;<22,=,0re8,;<1>::->8896991371%%12452>=5qt",
"08<2503-569768087884:$:,>,-:6ww06:*,:&**,9qqqq95:1<*@=3252:&,0re",
"52-29w07888523753641;*377>=4qew82-:40633<5w8974,>36<%&2,,=&&6qw0",
":=18qq979543<,<2<33>-,7q96135575:%50ww95%1073:-=<584;#;1<<-;6994",
"#,70q98q81=35>;=-36<:79w094;;>51&$6erq05;486,&%:<465,<14774:,54:",
"#5qq87884=:491:>=<3,>79q0971-=;=@49erq971122;-,680984555565142:#",
"57875452-*8q8<:6542->8w8741<-@##=2rtw095,%*->1278eq7444387651;>-",
"qq752>;-%<804-50893>-6073>=&#@>,79erw073:$<57q93600412225776<;9w",
"e56421,&*685,;8q9084:553>&#-*<5q6:8wq96<-*4qreq33884:,,26772>7wy",
"84,8w92>581;<8807873=22>$+*748794&39972,&:7ere02:23<&%;36751<488",
"1-<9e064482*1909641,*&--&o<859972#<32,;=&,7req6,%;:*$;69q6556962",
"7390063,603>:4662,:&%,95-%<55763;+506555=<qrw83:%775:50qeq745808",
"128062><7w8:%$:,:*%%:272541,,32,**8ete004%,7851=>7er8769ew81-145",
"*465<;;5qwq5*&%=#.*:1-,7983;%===%>8rewq93O<1>>-*60rr07,3w05-&:<:",
"*1<>-%,9ww06<;16>268216073:$>5:*&59rew07<o195;%-6qew9<&-21=@=41@",
"2t>55,3<6851>:39eqw9*-351=+&78851729q074:.4ww415-6q95;@*4**;:44*",
"464qq945=*---35wr0q8,%;:*@#39eqq83228742=.,36w61=-442;&988q62-16",
"9<57754,;>;;26qw0072;%494>>7wrwwq5<:542,*:34257, ,2<>=>60q74<<5q",
"82<7742:-4885799851:*>5erq178qq097,$=:-*$5081,,;#:q5-*3707313790",
"2>:6941:3weq2<773<;;170rew81,27873-@<9-:=5905<;#=0tq5,63573,3898",
"=*1083<17wq06:21>=-<60wewq95-->33:$707771+143,;=58te9622696<,562",
"++:851,4700971;-&$-60wq00074:&,::&40we872#&632>:6qr097534452:>,;",
"@.2973,2678741-*&%35wqq08741-135-19ew985:&20w86158q86752211<==;;",
"*%5w84:>24551;-*<4399097741;,809;70q974,=19q9754<584242,,21>%;q5",
"5-3841:=:1454,<6609845543,;27q99142794>=;3887543254>=>,;22,>,772",
"5$-2;-,<132324570003,;>,,-270997>$>65,*=277753222<,&+%<,2>:17979",
",O=73155666548642671-6;-==609763-.:2,&#-37632,12,<,-O-690<148997",
"%@3wrq98856q431-;76<57531<22463:%#484->21132>><<<3<3;,70q81>,33<",
"@,9tq99005895>&#,w73ee751>;=*:;*#;6etw5:,1<>:==>33331379972-----",
"-6ew099993364,-:7rweeq6,*<&>2$o$$30wq074,4,1=$%364447097674:-68r",
"769q88876<:1>;;<7re098<@3766<+$:3008964111553>3397883887763>=6wr",
"9;476544<;;52:477qq2<<#<8866<=2qw84:54>=;3897467eq08>246542:,9ee",
"8,;<1>:;-,8806992471%%12452,=4qyt8;;<>-%=4884600wq07<*;<22<=,0re",
"7:*,:&**,8wqqw85><1*@=3252>&<0te08<2593-569667088874>$;,>,;:6qw0",
"1-;5053315w9974>>36<%&2<,*&&5qw061;19w0679853375355<;*376>=40rq8",
";&40ew95$2072:-=<583;#;1<,-;6904:-28ww0896431><2<33,-,7006135686",
"%$7erw05;486<%%:<466,<14774:,54-#,6qw88w8<-34>;=-26<:79w094;;>41",
"+49eeq961<21;=>780983555565141:##5wq87984=:592>>=<3,>79q0971-=;-",
"-3rreq95<%*;,1278eq8444396661;:;47875352-*808<:6542->8w9732<-@##",
"79rewq83:$157q92709412224876<:9wwq752:;-%<8q3-40804>-6874>=&##><",
"6;8wq95<-*4qer033874>>,26773,6wye47421>*=684,;8q8084>564:&#-*,5q",
"5&39962,&:7ete02:24,&&;36751<58884,7w92>581:18908773-11:$+&74879",
"1@<42,;*%,8trq6,%;>&#;69q65568621;<9e054472*2809642>*%-:*o<86987",
";@506655=<qeq93:$785:5qweq6548087390q63,504>:3662,:&%,95-%166764",
"**8ete004&,785<=>7er8868ew81;245128962><7w8:%$:,:*%%:17154<,,32,",
"%>9eeww93O<1>>-&60rt07,3w04-&;1;*475<;;6qqw5*&$*#.*:1;>7983;%==-",
"&59eew08<O195;%-6qew81*;66,%=41#=<2<;*>9ew06<;28:368315074>%>5;*"
};
